<?xml version="1.0" standalone="no"?>
<!DOCTYPE svg PUBLIC "-//W3C//DTD SVG 1.1//EN" "http://www.w3.org/Graphics/SVG/1.1/DTD/svg11.dtd">
<svg xmlns="http://www.w3.org/2000/svg">
<defs >
<font id="WorkSans" horiz-adv-x="577" ><font-face
    font-family="Work Sans ExtraLight"
    units-per-em="1000"
    panose-1="0 0 0 0 0 0 0 0 0 0"
    ascent="930"
    descent="-243"
    alphabetic="0" />
<glyph unicode=" " horiz-adv-x="289" />
<glyph unicode="!" horiz-adv-x="198" d="M70 177L99 316L179 660H208L128 316L94 177H70ZM46 -6Q34 -6 27 1T19 21Q19 35 27 44T49 54Q61 54 68 47T76 27Q76 13 68 4T46 -6Z" />
<glyph unicode="&quot;" horiz-adv-x="270" d="M305 682L259 506H234L274 682H305ZM199 682L153 506H128L168 682H199Z" />
<glyph unicode="#" horiz-adv-x="609" d="M293 0L516 660H543L320 0H293ZM34 208V231H558V208H34ZM80 0L303 660H330L107 0H80ZM92 438V460H612V438H92Z" />
<glyph unicode="$" horiz-adv-x="602" d="M304 0Q236 0 181 25T89 93T41 190L67 201Q78 150 111 110T194 47T306 24Q364 24 407 44T474 98T498 176Q498 230 458 259T353 305L297 321Q247 334 208 355T147 408T125 486Q125 539 152 578T230 638T348 660Q414 660
459 640T533 585T576 504L550 491Q538 535 512 567T446 618T346 636Q258 636 205 596T152 489Q152 450 171 423T225 378T303 348L364 331Q436 312 480 277T525 178Q525 125 498 85T420 23T304 0ZM207 -100L407 760H432L233 -100H207Z" />
<glyph unicode="%" horiz-adv-x="780" d="M93 0L690 660H723L126 0H93ZM218 323Q178 323 150 340T106 389T91 461Q91 518 111 563T170 635T261 662Q301 662 328 644T369 596T383 524Q383 471 364 425T308 351T218 323ZM221 346Q265 346 295 371T341 436T357 522Q357
574 332 606T259 639Q214 639 183 615T135 552T118 464Q118 410 146 378T221 346ZM560 -2Q520 -2 492 15T448 64T433 136Q433 193 453 238T511 310T603 337Q643 337 670 319T711 271T725 200Q725 146 706 100T649 26T560 -2ZM562 21Q607 21 637 46T683 111T699
197Q699 250 673 282T601 314Q556 314 525 290T476 227T459 139Q459 85 487 53T562 21Z" />
<glyph unicode="&amp;" horiz-adv-x="561" d="M217 -10Q159 -10 116 10T49 66T25 153Q25 208 49 245T120 309T232 358L243 363Q302 385 346 409T415 467T440 547Q440 589 413 616T337 644Q283 644 249 608T214 518Q214 495 220 463T238 394T269 314T312 229Q358
148 396 101T469 33T536 13L530 -10V-10Q492 -10 454 13T376 85T289 215Q259 271 236 326T201 431T188 517Q188 561 207 595T260 648T338 667Q399 667 432 634T466 549Q466 495 439 457T362 392T248 340L242 339Q184 317 142 294T76 237T52 154Q52 89 98 52T217
14Q269 14 312 32T391 84L399 91Q446 136 475 205T512 356L538 355Q530 270 498 196T413 71L407 66Q381 43 351 26T288 0T217 -10Z" />
<glyph unicode="&apos;" horiz-adv-x="164" d="M199 682L153 506H128L168 682H199Z" />
<glyph unicode="(" horiz-adv-x="270" d="M140 -174Q98 -102 77 -11T55 176Q55 262 76 346T136 506T231 642T355 742L367 724Q275 666 212 578T116 387T83 174Q83 85 101 0T159 -161L140 -174Z" />
<glyph unicode=")" horiz-adv-x="271" d="M146 743Q188 671 209 580T231 393Q231 307 210 223T150 63T55 -73T-69 -173L-81 -155Q11 -97 74 -9T170 182T203 395Q203 484 185 569T127 730L146 743Z" />
<glyph unicode="*" horiz-adv-x="514" d="M396 309L342 423L314 490L258 430L158 333L140 351L240 448L301 502L233 531L120 585L132 607L245 554L310 518L324 598L351 730H377L348 595L328 516L404 535L535 561L537 536L406 510L330 498L364 434L419 320L396 309Z" />
<glyph unicode="+" horiz-adv-x="604" d="M384 549L276 77H249L357 549H384ZM554 329L549 303H81L86 329H554Z" />
<glyph unicode="," horiz-adv-x="184" d="M44 54Q61 54 70 43T79 14Q79 -12 66 -39T29 -87T-24 -115L-33 -94Q-5 -88 14 -72T45 -35T58 5L57 6Q53 -1 48 -3T35 -6Q23 -6 17 2T10 21Q10 35 19 44T44 54Z" />
<glyph unicode="-" horiz-adv-x="434" d="M369 283L363 254H73L79 283H369Z" />
<glyph unicode="." horiz-adv-x="185" d="M39 -6Q27 -6 20 1T12 21Q12 35 20 44T42 54Q54 54 61 47T69 27Q69 13 61 4T39 -6Z" />
<glyph unicode="/" horiz-adv-x="362" d="M439 730L-11 -70H-41L409 730H439Z" />
<glyph unicode="0" horiz-adv-x="605" d="M285 -6Q213 -6 165 26T93 116T69 245Q69 283 73 319T85 391Q99 448 123 498T182 587T263 646T364 668Q433 668 479 635T550 545T574 417Q574 380 570 344T558 273Q545 215 521 164T461 75T382 16T285 -6ZM287 18Q351
18 399 53T481 147T530 277Q538 311 542 346T546 416Q546 522 498 582T362 643Q295 643 245 608T162 515T113 386Q105 352 101 317T97 245Q97 174 119 123T184 45T287 18Z" />
<glyph unicode="1" horiz-adv-x="323" d="M143 0L269 549Q274 568 278 584T289 620Q263 591 230 567T161 527T89 502L88 528Q125 539 163 557T237 602T298 660H324L171 0H143Z" />
<glyph unicode="2" horiz-adv-x="539" d="M8 0L14 26Q115 97 200 158T347 276T444 388T478 502Q478 580 435 612T324 644Q247 644 193 596T119 472L96 488Q111 541 142 582T219 646T325 670Q380 670 420 652T483 599T506 508Q506 457 484 409T420 315T321 221T197
126T55 26V25Q63 25 73 25T91 25H447L441 0H8Z" />
<glyph unicode="3" horiz-adv-x="519" d="M236 -10Q150 -10 94 37T20 166L49 174Q60 104 110 60T238 15Q293 15 336 36T403 95T427 185Q427 247 387 284T270 321Q263 321 258 321T242 320L248 348Q258 347 265 347T279 347Q339 347 381 367T446 424T469 504Q469
550 449 581T394 629T315 646Q245 646 197 614T124 524L99 540Q126 603 183 637T318 671Q371 671 411 651T474 595T497 508Q497 459 475 422T416 362T335 333V332Q370 326 397 307T440 257T456 188Q456 126 427 82T348 14T236 -10Z" />
<glyph unicode="4" horiz-adv-x="524" d="M287 0L334 199H22L27 223Q34 231 42 241T63 265L429 660H470L367 223H496L491 199H362L315 0H287ZM56 223H339L435 632L97 267Q85 253 75 243T56 223Z" />
<glyph unicode="5" horiz-adv-x="533" d="M254 -10Q193 -10 147 15T73 79T41 165L69 172Q73 131 96 95T161 37T257 15Q319 15 362 44T427 119T450 219Q450 274 428 310T367 364T281 383Q229 383 191 365T127 325L103 334L204 660H540L534 635H222L136 352Q160
374 201 390T291 407Q344 407 386 386T454 323T479 223Q479 159 452 106T375 22T254 -10Z" />
<glyph unicode="6" horiz-adv-x="542" d="M280 -10Q210 -10 163 22T92 112T68 248Q68 328 87 402T146 537T243 632T379 668Q441 668 489 636T552 542L526 532Q513 585 471 613T378 642Q311 642 259 611T172 526T117 401T95 250Q114 318 170 357T303 396Q387 396
440 346T493 207Q493 142 466 93T391 17T280 -10ZM281 15Q336 15 377 39T441 105T464 203Q464 282 418 326T294 371Q240 371 197 347T129 283T104 194Q104 165 114 134T145 76T200 32T281 15Z" />
<glyph unicode="7" horiz-adv-x="489" d="M111 660H562L556 635Q461 550 387 454T261 245T177 0H145Q175 124 227 238T356 454T536 646V635H104L111 660Z" />
<glyph unicode="8" horiz-adv-x="579" d="M269 -9Q221 -9 180 3T108 40T60 97T43 171Q43 231 74 270T155 330T259 353L277 345Q242 352 212 373T163 426T144 494Q144 545 169 584T240 647T349 671Q408 671 452 650T522 593T547 509Q547 437 499 390T362 335L354
342Q393 336 427 312T481 254T502 180Q502 118 473 77T392 13T269 -9ZM274 16Q332 16 377 34T448 87T474 174Q474 220 448 255T376 311T272 332Q220 332 175 314T101 260T72 173Q72 124 99 89T172 35T274 16ZM344 354Q396 354 435 373T497 427T519 506Q519 567
473 606T349 646Q294 646 255 626T194 572T173 495Q173 458 195 426T257 374T344 354Z" />
<glyph unicode="9" horiz-adv-x="556" d="M231 -10Q176 -10 134 9T65 64T25 145L52 154Q63 114 87 83T148 33T232 15Q294 15 343 47T426 134T478 261T497 413Q486 366 457 332T387 281T296 263Q237 263 193 287T124 355T100 458Q100 515 126 563T201 641T314 670Q376
670 423 642T497 558T524 421Q524 337 505 260T449 122T357 26T231 -10ZM299 287Q352 287 395 311T463 377T489 471Q489 517 467 557T406 621T314 645Q257 645 216 621T151 555T128 462Q128 409 149 370T208 309T299 287Z" />
<glyph unicode=":" horiz-adv-x="212" d="M101 22Q89 22 82 29T74 49Q74 63 82 72T104 82Q116 82 123 75T131 55Q131 41 123 32T101 22ZM205 469Q193 469 186 476T178 496Q178 510 186 519T208 529Q220 529 227 522T235 502Q235 488 227 479T205 469Z" />
<glyph unicode=";" horiz-adv-x="212" d="M56 54Q73 54 82 43T91 14Q91 -12 78 -39T41 -87T-12 -115L-21 -94Q7 -88 26 -72T57 -35T70 5L69 6Q65 -1 60 -3T47 -6Q35 -6 29 2T22 21Q22 35 31 44T56 54ZM160 502Q172 502 179 495T187 475Q187 461 179 452T157 442Q145
442 138 449T130 469Q130 483 138 492T160 502Z" />
<glyph unicode="&lt;" horiz-adv-x="605" d="M589 547L581 514L105 298L481 80L474 52L79 283L87 316L589 547Z" />
<glyph unicode="=" horiz-adv-x="604" d="M562 426L556 400H117L123 426H562ZM515 222L509 197H70L77 222H515Z" />
<glyph unicode="&gt;" horiz-adv-x="605" d="M39 52L47 85L523 301L147 519L154 547L549 316L541 283L39 52Z" />
<glyph unicode="?" horiz-adv-x="485" d="M197 161L233 316Q314 317 366 339T443 402T469 497Q469 565 426 604T308 643Q230 643 183 605T116 514L93 529Q109 569 137 600T207 650T308 668Q366 668 409 647T475 588T498 498Q498 436 469 391T385 319T256 292L225
161H197ZM178 -6Q166 -6 159 1T151 21Q151 35 159 44T181 54Q193 54 200 47T208 27Q208 13 200 4T178 -6Z" />
<glyph unicode="@" horiz-adv-x="918" d="M453 -176Q339 -176 253 -130T118 2T70 209Q70 315 104 397T198 536T334 622T496 652Q589 652 657 624T771 545T839 427T861 283Q861 228 848 178T811 87T754 24T681 1Q647 1 627 17T600 59T595 111Q572 67 530 39T428
10Q373 10 334 36T273 109T252 211Q252 266 268 314T315 398T385 454T474 474Q524 474 559 454T615 394T637 302L675 464H701L624 134Q621 123 620 113T619 94Q619 53 640 38T685 23Q719 23 746 45T794 104T826 188T837 282Q837 354 817 417T754 528T647 602T495
629Q415 629 344 602T217 521T129 389T96 209Q96 124 122 57T196 -57T309 -128T453 -153Q529 -153 592 -134T691 -91L704 -111Q678 -127 640 -142T555 -166T453 -176ZM429 33Q487 33 530 64T597 151T621 278Q621 339 602 377T549 432T474 450Q434 450 399 432T336
383T294 308T278 211Q278 157 298 117T352 55T429 33Z" />
<glyph unicode="A" horiz-adv-x="588" d="M-44 0L371 660H407L516 0H488L392 572L383 629V629L350 575L-12 0H-44ZM116 227L122 253H465L459 227H116Z" />
<glyph unicode="B" horiz-adv-x="633" d="M41 0L194 660H410Q500 660 546 620T592 511Q592 464 571 425T512 361T422 329V329Q489 322 524 286T559 196Q559 133 530 89T447 23T314 0H41ZM74 25H314Q419 25 474 69T530 196Q530 229 515 256T463 300T358 317H142L74
25ZM148 343H372Q433 343 476 366T541 428T564 509Q564 568 524 601T404 635H216L148 343Z" />
<glyph unicode="C" horiz-adv-x="663" d="M347 -10Q272 -10 210 23T112 119T76 276Q76 353 97 424T160 550T265 637T410 670Q470 670 518 649T602 588T654 489L626 481Q603 561 546 603T408 645Q333 645 277 615T182 532T124 415T105 281Q105 197 138 138T226
47T349 15Q428 15 484 49T575 145L600 130Q561 64 498 27T347 -10Z" />
<glyph unicode="D" horiz-adv-x="690" d="M45 0L198 660H391Q476 660 534 625T622 529T653 390Q653 307 628 236T555 112T439 30T288 0H45ZM79 25H291Q367 25 428 53T534 130T601 246T624 387Q624 458 598 514T519 602T387 635H220L79 25Z" />
<glyph unicode="E" horiz-adv-x="582" d="M41 0L194 660H625L618 635H215L150 349H473L467 324H143L75 25H496L490 0H41Z" />
<glyph unicode="F" horiz-adv-x="540" d="M605 635H215L150 349H470L464 324H143L69 0H41L194 660H611L605 635Z" />
<glyph unicode="G" horiz-adv-x="692" d="M343 -9Q270 -9 209 24T112 120T76 276Q76 353 97 424T162 550T271 638T422 670Q479 670 527 651T613 592T671 495L644 486Q614 565 556 605T420 645Q342 645 283 615T184 532T125 415T105 280Q105 197 137 138T225 48T347
17Q403 17 453 37T542 105T597 232L609 283H379L385 309H641L569 0H545L585 176L594 184Q576 113 538 71T450 10T343 -9Z" />
<glyph unicode="H" horiz-adv-x="689" d="M685 660L532 0H504L657 660H685ZM222 660L69 0H41L194 660H222ZM600 349L593 324H130L136 349H600Z" />
<glyph unicode="I" horiz-adv-x="225" d="M222 660L69 0H41L194 660H222Z" />
<glyph unicode="J" horiz-adv-x="495" d="M184 -10Q135 -10 99 7T42 54T18 128T31 223L57 225Q38 160 47 113T93 41T186 15Q259 15 303 58T369 196L476 660H504L395 191Q381 124 353 80T284 13T184 -10Z" />
<glyph unicode="K" horiz-adv-x="563" d="M41 0L194 660H222L131 272L591 660H634L319 395L489 0H458L296 375L121 227L69 0H41Z" />
<glyph unicode="L" horiz-adv-x="542" d="M75 25H475L469 0H41L194 660H222L75 25Z" />
<glyph unicode="M" horiz-adv-x="783" d="M41 0L194 660H232L332 88L339 32V32L369 85L737 660H779L626 0H599L727 551L747 628H746L347 0H319L211 628H210L195 551L68 0H41Z" />
<glyph unicode="N" horiz-adv-x="687" d="M41 0L194 660H229L489 87L512 30V30L526 96L657 660H684L531 0H496L235 574L212 631V631L199 564L68 0H41Z" />
<glyph unicode="O" horiz-adv-x="718" d="M347 -10Q273 -10 211 23T113 122T77 280Q77 357 98 427T161 551T266 638T411 670Q485 670 545 636T642 538T678 380Q678 304 657 234T594 109T491 22T347 -10ZM349 16Q423 16 479 46T573 127T630 243T649 379Q649 464
617 523T530 613T408 644Q334 644 278 614T183 533T125 417T106 281Q106 196 138 137T226 47T349 16Z" />
<glyph unicode="P" d="M41 0L194 660H368Q463 660 519 615T576 490Q576 429 548 381T464 304T330 275H121L125 301H336Q404 301 451 326T523 394T548 489Q548 557 500 596T367 635H216L69 0H41Z" />
<glyph unicode="Q" horiz-adv-x="718" d="M459 -195Q425 -195 397 -185T347 -157T315 -112T303 -54Q303 -40 305 -26T312 5L337 4Q332 -11 331 -24T329 -50Q329 -106 365 -137T462 -169Q487 -169 512 -163T557 -144L563 -169Q542 -182 515 -188T459 -195ZM347
-10Q273 -10 211 23T113 122T77 280Q77 357 98 427T161 551T266 638T411 670Q485 670 545 636T642 538T678 380Q678 304 657 234T594 109T491 22T347 -10ZM349 16Q423 16 479 46T573 127T630 243T649 379Q649 464 617 523T530 613T408 644Q334 644 278 614T183
533T125 417T106 281Q106 196 138 137T226 47T349 16Z" />
<glyph unicode="R" horiz-adv-x="612" d="M41 0L194 660H398Q491 660 541 616T591 496Q591 438 566 393T491 320T370 292L360 290H126L129 316H360Q429 316 473 340T540 404T562 495Q562 558 521 596T395 635H216L69 0H41ZM488 0L369 303L398 305L518 0H488Z" />
<glyph unicode="S" horiz-adv-x="604" d="M308 -8Q236 -8 178 16T84 83T36 185L64 197Q72 142 106 102T193 39T309 17Q365 17 411 35T485 87T514 171Q514 220 476 252T367 303L283 326Q233 340 198 364T145 421T127 494Q127 544 154 584T232 647T354 671Q445 671
509 632T595 511L568 499Q554 551 524 583T450 631T352 646Q291 646 247 626T179 573T155 497Q155 446 189 409T291 353L374 331Q456 309 499 270T543 175Q543 115 511 75T425 13T308 -8Z" />
<glyph unicode="T" horiz-adv-x="545" d="M625 660L619 635H376L230 0H202L348 635H103L110 660H625Z" />
<glyph unicode="U" horiz-adv-x="663" d="M310 -10Q223 -10 167 25T91 124T91 278L181 660H209L118 270Q99 189 117 132T186 45T311 15Q408 15 466 76T550 250L645 660H673L577 241Q549 123 485 57T310 -10Z" />
<glyph unicode="V" d="M654 660L249 0H214L113 660H141L225 111L237 28L281 106L622 660H654Z" />
<glyph unicode="W" horiz-adv-x="901" d="M177 0L120 660H147L200 31L524 660H561L595 29L940 660H971L608 0H572L543 498L536 629H535L465 488L211 0H177Z" />
<glyph unicode="X" horiz-adv-x="530" d="M-40 0L273 342L133 660H163L293 361L560 660H595L305 337L452 0H423L285 318L-4 0H-40Z" />
<glyph unicode="Y" horiz-adv-x="514" d="M185 0L244 256L111 660H141L218 421L263 283L378 432L559 660H593L272 254L213 0H185Z" />
<glyph unicode="Z" horiz-adv-x="551" d="M-24 0L-18 25L553 635H123L129 660H595L589 635L17 25H474L467 0H-24Z" />
<glyph unicode="[" horiz-adv-x="282" d="M373 706H210L13 -143H177L171 -168H-19L189 730H379L373 706Z" />
<glyph unicode="\" horiz-adv-x="391" d="M144 730H170L285 -70H258L144 730Z" />
<glyph unicode="]" horiz-adv-x="283" d="M-76 -144H87L284 705H120L126 730H316L108 -168H-82L-76 -144Z" />
<glyph unicode="^" horiz-adv-x="538" d="M59 355L364 730H394L527 355H498L375 704L92 355H59Z" />
<glyph unicode="_" horiz-adv-x="507" d="M427 -97L421 -122H-86L-80 -97H427Z" />
<glyph unicode="`" horiz-adv-x="541" d="M354 734L405 583H382L325 734H354Z" />
<glyph unicode="a" horiz-adv-x="588" d="M253 -10Q190 -10 145 19T74 99T49 216Q49 278 67 331T118 424T199 487T305 510Q364 510 405 488T470 424T494 329L533 500H561L445 0H419L446 120Q420 65 372 28T253 -10ZM260 15Q309 15 349 39T418 105T463 196T479
300Q479 366 455 406T391 466T305 486Q254 486 213 466T141 410T94 324T77 215Q77 152 101 107T166 39T260 15Z" />
<glyph unicode="b" horiz-adv-x="588" d="M343 510Q404 510 448 481T515 401T539 285Q539 225 522 172T474 78T397 14T295 -10Q235 -10 192 14T124 82T97 180L56 0H28L196 730H224L145 392Q174 447 226 478T343 510ZM295 14Q343 14 382 35T451 93T495 179T511
286Q511 349 489 393T427 461T338 485Q285 485 244 464T174 405T130 315T115 203Q115 116 164 65T295 14Z" />
<glyph unicode="c" horiz-adv-x="520" d="M262 -10Q201 -10 153 18T77 97T49 215Q49 297 80 364T168 470T303 510Q352 510 390 492T455 441T491 362L463 355Q450 416 409 451T302 486Q249 486 208 465T138 407T93 321T77 217Q77 155 102 110T169 40T266 15Q325
15 369 46T437 128L461 117Q435 60 384 25T262 -10Z" />
<glyph unicode="d" horiz-adv-x="588" d="M253 -10Q190 -10 145 19T74 99T49 216Q49 278 67 331T118 424T199 487T305 510Q362 510 404 488T470 424T493 325L586 730H614L445 0H419L446 120Q420 65 372 28T253 -10ZM260 15Q309 15 349 39T418 105T463 196T479
300Q479 366 455 406T391 466T305 486Q254 486 213 466T141 410T94 324T77 215Q77 152 101 107T166 39T260 15Z" />
<glyph unicode="e" horiz-adv-x="535" d="M263 -9Q195 -9 147 21T74 103T49 217Q49 295 78 361T165 468T302 509Q360 509 402 483T467 411T490 307Q490 295 489 282T485 255H65V279H470L460 271Q461 280 461 289T462 305Q462 355 443 396T388 461T299 485Q247
485 206 464T135 405T92 320T77 216Q77 158 100 113T165 41T265 15Q325 16 371 44T444 118L467 104Q446 72 417 46T349 6T263 -9Z" />
<glyph unicode="f" horiz-adv-x="327" d="M55 0L192 591Q204 637 224 669T275 718T352 735Q376 735 395 728T428 709L417 685Q405 698 388 704T352 710Q294 710 264 677T217 577L199 500L197 488L83 0H55ZM64 476L70 500H370L364 476H64Z" />
<glyph unicode="g" horiz-adv-x="589" d="M210 -215Q168 -215 131 -204T66 -172T20 -120T-7 -51L20 -41Q35 -114 86 -152T213 -190Q264 -190 304 -172T373 -113T417 -5L453 152L452 134Q428 81 376 46T252 11Q194 11 148 37T76 112T50 232Q50 288 67 338T115 427T193
488T299 510Q367 510 413 477T478 387T486 262L480 270L533 500H561L443 -10Q427 -82 395 -127T317 -194T210 -215ZM257 35Q327 35 375 71T448 167T473 293Q473 360 449 402T385 465T299 486Q229 486 180 450T104 356T78 231Q78 138 127 87T257 35Z" />
<glyph unicode="h" horiz-adv-x="569" d="M27 0L197 730H225L140 368L134 367Q149 408 179 440T252 491T351 510Q409 510 448 484T503 410T503 295L434 0H406L474 294Q495 387 459 436T346 486Q283 486 238 460T165 391T123 294L55 0H27Z" />
<glyph unicode="i" horiz-adv-x="198" d="M183 598Q171 598 164 605T157 624Q157 638 165 647T187 656Q199 656 206 649T214 630Q214 615 206 607T183 598ZM170 500L54 0H26L142 500H170Z" />
<glyph unicode="j" horiz-adv-x="196" d="M183 598Q171 598 164 605T157 624Q157 638 165 647T187 656Q199 656 206 649T214 630Q214 615 206 607T183 598ZM-110 -215Q-131 -215 -149 -209T-179 -194L-168 -170Q-156 -178 -142 -183T-111 -189Q-64 -189 -34 -158T11
-63L142 500H170L37 -74Q22 -141 -14 -178T-110 -215Z" />
<glyph unicode="k" horiz-adv-x="487" d="M524 500L260 293L251 287L73 147L81 185L482 500H524ZM224 730L55 0H27L196 730H224ZM261 306L414 0H384L238 293L261 306Z" />
<glyph unicode="l" horiz-adv-x="245" d="M124 -9Q72 -9 55 26T51 124L191 730H219L78 121Q66 68 78 42T132 16Q149 16 161 18T184 24L178 1Q169 -4 155 -6T124 -9Z" />
<glyph unicode="m" horiz-adv-x="936" d="M27 0L143 500H169L139 365L134 367Q156 429 211 469T350 510Q409 510 446 484T497 411T494 295L426 0H398L465 294Q487 386 454 436T345 486Q283 486 238 460T164 391T123 294L55 0H27ZM769 0L836 294Q857 386 824 436T716
486Q653 486 608 459T534 388T492 288L495 359Q524 429 580 469T721 510Q780 510 817 484T867 411T865 295L797 0H769Z" />
<glyph unicode="n" horiz-adv-x="569" d="M27 0L143 500H169L139 365L134 367Q156 429 212 469T351 510Q410 510 449 484T503 410T503 295L434 0H406L474 294Q495 387 459 436T346 486Q283 486 238 460T165 391T123 294L55 0H27Z" />
<glyph unicode="o" horiz-adv-x="567" d="M267 -9Q197 -9 149 21T75 103T50 216Q50 302 81 368T170 471T302 509Q372 509 420 479T493 398T518 285Q518 200 487 134T399 29T267 -9ZM267 15Q316 15 357 34T427 90T473 175T490 284Q490 345 467 389T402 459T301
485Q252 485 211 466T140 411T94 326T78 217Q78 157 101 112T167 41T267 15Z" />
<glyph unicode="p" horiz-adv-x="588" d="M-21 -210L143 500H169L135 348L129 353Q145 403 176 437T251 491T343 510Q404 510 448 481T515 401T539 286Q539 225 522 172T473 78T396 14T294 -10Q231 -10 186 17T118 93T96 205L109 231L7 -210H-21ZM295 14Q343 14
382 35T451 93T495 179T511 287Q511 349 489 393T427 461T337 485Q285 485 244 464T175 405T131 315T115 203Q115 116 164 65T295 14Z" />
<glyph unicode="q" horiz-adv-x="588" d="M369 -210L452 150L449 121Q424 64 377 27T256 -10Q191 -10 145 19T74 100T49 216Q49 278 66 331T117 425T196 487T299 510Q371 510 416 475T478 384T484 263L480 271L533 500H561L397 -210H369ZM257 15Q306 15 346 35T414
92T458 180T473 290Q473 359 449 402T385 466T300 486Q251 486 210 466T140 410T94 324T77 215Q77 154 100 109T163 40T257 15Z" />
<glyph unicode="r" horiz-adv-x="347" d="M27 0L143 500H168L138 356L131 363Q150 405 176 438T238 490T321 510Q338 510 354 507T381 496L370 471Q360 479 346 482T314 485Q266 485 227 460T162 391T124 295L55 0H27Z" />
<glyph unicode="s" horiz-adv-x="493" d="M237 -10Q176 -10 131 9T59 63T27 145L54 154Q60 90 107 52T237 14Q310 14 350 47T390 133Q390 169 370 191T303 227L202 255Q147 271 119 299T90 373Q90 415 112 445T175 492T268 509Q341 509 393 476T458 369L433 358Q427
402 403 430T343 472T265 485Q198 485 158 455T117 376Q117 337 141 315T210 280L314 251Q367 235 392 208T418 136Q418 93 396 60T333 8T237 -10Z" />
<glyph unicode="t" horiz-adv-x="343" d="M194 -10Q150 -10 123 8T86 60T87 142L199 626L229 635L114 140Q101 80 122 48T198 15Q223 15 243 22T282 42L289 19Q271 5 246 -2T194 -10ZM60 476L66 500H363L356 476H60Z" />
<glyph unicode="u" horiz-adv-x="569" d="M227 -10Q164 -10 123 15T67 90T67 208L135 500H163L96 207Q74 113 112 64T232 15Q290 15 333 40T405 109T446 206L514 500H542L426 0H400L430 135L435 133Q410 69 357 30T227 -10Z" />
<glyph unicode="v" horiz-adv-x="477" d="M484 500H516L195 0H166L77 500H105L189 22L182 25L484 500Z" />
<glyph unicode="w" horiz-adv-x="771" d="M132 0L84 500H112L154 38L426 500H454L515 38L770 500H801L522 0H494L432 460L161 0H132Z" />
<glyph unicode="x" horiz-adv-x="474" d="M-37 0L227 267L233 273L456 500H493L250 254L240 244L0 0H-37ZM369 0L230 247L227 253L87 500H119L246 275L250 268L401 0H369Z" />
<glyph unicode="y" horiz-adv-x="478" d="M-23 -215Q-51 -215 -72 -207T-103 -183L-87 -162Q-66 -190 -22 -190Q15 -190 46 -167T112 -88L168 1L78 500H106L180 86L189 31L225 89L485 500H517L135 -100Q109 -142 84 -167T34 -204T-23 -215Z" />
<glyph unicode="z" horiz-adv-x="473" d="M-15 0L-10 24L397 430L446 476H376H91L97 500H485L480 476L97 94L26 24H111H391L386 0H-15Z" />
<glyph unicode="{" horiz-adv-x="273" d="M139 -174Q88 -174 64 -142T53 -56L107 179Q118 226 94 250T25 273H18L23 297H32Q81 297 113 320T153 381L212 638Q223 685 255 713T338 742H359L354 720H337Q295 720 271 697T238 632L180 377Q173 346 146 318T75 283Q113
273 127 246T134 178L79 -59Q69 -102 87 -126T145 -153H153L148 -174H139Z" />
<glyph unicode="|" horiz-adv-x="179" d="M213 730L5 -168H-20L188 730H213Z" />
<glyph unicode="}" horiz-adv-x="273" d="M-71 -174L-66 -152H-48Q-5 -152 18 -128T51 -63L109 192Q116 223 143 251T214 286Q176 296 161 323T155 390L210 627Q220 670 202 695T144 721H135L141 742H150Q184 742 205 728T235 688T236 625L181 389Q171 344 195
320T264 296H271L265 272H257Q207 272 176 249T135 188L76 -69Q66 -116 35 -145T-49 -174H-71Z" />
<glyph unicode="~" horiz-adv-x="490" d="M478 393Q466 357 448 334T405 300T354 289Q323 289 301 300T259 326T221 352T176 363Q143 363 119 344T80 284H53Q65 319 83 342T126 376T179 388Q208 388 228 377T267 351T307 325T356 314Q388 314 412 333T450 393H478Z" />
<glyph unicode="&#xa0;" horiz-adv-x="289" />
<glyph unicode="&#xa1;" horiz-adv-x="191" d="M123 323L94 184L14 -160H-15L65 184L99 323H123ZM147 506Q159 506 166 499T174 479Q174 465 166 456T144 446Q132 446 125 453T117 473Q117 487 125 496T147 506Z" />
<glyph unicode="&#xa2;" horiz-adv-x="546" d="M277 -10Q214 -10 165 18T87 96T59 214Q59 297 90 364T179 470T318 510Q369 510 408 492T474 441T511 362L484 355Q472 416 429 451T317 486Q246 486 194 450T114 353T86 217Q86 155 111 109T181 39T281 14Q342 14
389 46T458 128L482 117Q455 60 402 25T277 -10ZM190 -100L352 600H376L214 -100H190Z" />
<glyph unicode="&#xa3;" horiz-adv-x="566" d="M76 298L81 322H424L418 298H76ZM354 -4Q312 -4 281 8T226 37T180 73T136 103T84 115Q59 115 43 101T27 66Q27 43 42 31T79 18Q116 18 144 42T189 106T206 190Q206 232 200 266T186 332T172 395T165 463Q165 524
191 570T263 644T365 671Q413 671 449 652T507 598T532 516L506 508Q501 570 464 608T365 646Q314 646 275 622T214 556T192 462Q192 415 201 376T220 293T230 191Q230 154 219 120T188 57T139 13T77 -3Q46 -3 24 16T1 65Q1 97 25 117T85 137Q117 137 142 125T189
96T234 61T286 31T353 19Q405 19 433 47T474 126L498 117Q488 81 470 54T424 12T354 -4Z" />
<glyph unicode="&#xa4;" horiz-adv-x="613" d="M325 520Q380 520 421 497T484 432T507 332Q507 275 485 233T421 166T325 142Q271 142 230 166T165 232T142 332Q142 389 165 431T229 497T325 520ZM325 495Q255 495 213 451T170 332Q170 257 212 212T325 167Q396
167 437 212T479 332Q479 406 438 450T325 495ZM101 573L209 464L190 446L82 554L101 573ZM191 216L210 196L101 86L82 106L191 216ZM457 215L568 105L550 86L440 196L457 215ZM550 573L568 555L460 445L441 465L550 573Z" />
<glyph unicode="&#xa5;" horiz-adv-x="574" d="M216 0L246 128H46L51 150H251L274 252H75L80 275H233L272 274L137 660H168L282 320L293 282H295L323 320L594 660H627L315 274L353 275H507L501 252H300L277 150H477L473 128H272L242 0H216Z" />
<glyph unicode="&#xa6;" horiz-adv-x="179" d="M213 730L128 365H103L188 730H213ZM90 197L5 -168H-20L65 197H90Z" />
<glyph unicode="&#xa7;" horiz-adv-x="559" d="M247 -110Q200 -110 161 -98T93 -61T47 1L72 15Q94 -35 141 -60T250 -86Q331 -86 370 -52T409 35Q409 77 386 102T319 141L183 186Q126 204 91 233T56 315Q56 345 71 371T120 414T205 434L219 419Q146 415 115 386T83
318Q83 274 113 250T196 208L327 165Q379 148 408 119T437 40Q437 -3 416 -37T353 -90T247 -110ZM366 130L355 146Q397 144 427 157T474 197T491 255Q491 292 467 314T380 357L275 391Q226 407 200 427T164 473T154 526Q154 564 175 597T240 650T346 670Q388 670
425 660T491 627T537 567L513 553Q489 604 445 625T344 646Q291 646 255 629T201 586T183 528Q183 493 202 465T286 414L394 379Q460 357 488 330T517 258Q517 224 500 195T449 148T366 130Z" />
<glyph unicode="&#xa8;" horiz-adv-x="541" d="M448 595Q437 595 430 602T422 620Q422 634 430 643T452 652Q464 652 471 645T478 627Q478 613 470 604T448 595ZM262 595Q251 595 244 602T237 620Q237 634 245 643T266 652Q278 652 285 645T292 627Q292 613 284
604T262 595Z" />
<glyph unicode="&#xa9;" horiz-adv-x="792" d="M415 -10Q315 -10 240 34T123 156T81 330Q81 427 122 504T239 625T415 670Q515 670 590 626T707 504T749 330Q749 234 707 157T590 35T415 -10ZM415 14Q507 14 576 55T683 168T722 330Q722 420 684 491T576 604T415
646Q323 646 254 605T146 492T107 330Q107 240 145 169T253 56T415 14ZM426 143Q341 143 293 192T244 328Q244 415 292 464T426 513Q483 513 521 488T576 414L554 403Q540 447 508 468T425 490Q352 490 311 447T269 328Q269 252 310 209T425 166Q475 166 511 191T558
261L581 252Q567 202 525 173T426 143Z" />
<glyph unicode="&#xaa;" horiz-adv-x="371" d="M215 327Q156 327 122 366T88 473Q88 512 99 546T132 608T183 650T248 666Q288 666 314 648T351 597T359 518L352 504L389 660H415L338 336H314L336 431L339 425Q326 384 293 356T215 327ZM41 219L46 240H317L312
219H41ZM219 349Q260 349 288 373T332 438T347 523Q347 584 321 614T248 644Q205 644 175 619T128 555T112 474Q112 417 140 383T219 349Z" />
<glyph unicode="&#xab;" horiz-adv-x="401" d="M271 461L74 256V276L174 69H145L50 265L236 461H271ZM400 461L203 256V276L303 69H274L179 265L365 461H400Z" />
<glyph unicode="&#xac;" horiz-adv-x="604" d="M546 317L512 168H484L518 317H546ZM549 329L543 303H86L92 329H549Z" />
<glyph unicode="&#xad;" horiz-adv-x="434" d="M369 283L363 254H73L79 283H369Z" />
<glyph unicode="&#xae;" horiz-adv-x="811" d="M424 670Q527 670 603 628T723 509T766 330Q766 228 723 152T604 33T424 -10Q321 -10 244 32T125 151T82 330Q82 432 124 508T244 627T424 670ZM326 513V143H301V513H326ZM468 321L584 143H555L446 312L468 321ZM424
646Q330 646 259 607T148 496T108 330Q108 235 147 164T258 54T424 14Q519 14 589 53T700 164T740 330Q740 425 700 496T590 606T424 646ZM455 513Q495 513 522 501T563 466T578 409Q578 359 547 332T455 305H313V325H455Q504 326 528 347T553 409Q553 451 529
471T455 492H313V513H455Z" />
<glyph unicode="&#xaf;" horiz-adv-x="541" d="M495 627L490 603H213L219 627H495Z" />
<glyph unicode="&#xb0;" horiz-adv-x="375" d="M252 389Q210 389 178 406T129 456T111 529Q111 571 128 603T178 652T252 670Q294 670 325 653T375 603T393 529Q393 488 375 456T326 407T252 389ZM252 412Q304 412 335 445T366 529Q366 581 335 613T252 646Q200
646 169 614T137 529Q137 478 168 445T252 412Z" />
<glyph unicode="&#xb1;" horiz-adv-x="604" d="M402 625L285 115H258L376 625H402ZM562 385L555 360H99L105 385H562ZM479 25L472 0H16L22 25H479Z" />
<glyph unicode="&#xb2;" horiz-adv-x="381" d="M97 333L102 356Q144 386 189 417T274 482T337 552T362 633Q362 672 340 692T279 713Q235 713 204 686T163 612L140 624Q153 674 189 704T280 735Q330 735 359 707T388 635Q388 588 364 549T302 477T219 413T136
355V355Q145 355 154 355T173 355H360L355 333H97Z" />
<glyph unicode="&#xb3;" horiz-adv-x="371" d="M226 327Q174 327 138 353T90 434L114 441Q123 393 153 372T226 350Q271 350 297 375T324 442Q324 482 299 502T236 522Q232 522 228 522T219 521L225 545Q231 544 236 544T247 544Q289 544 318 569T347 637Q347
674 324 693T260 713Q225 713 198 696T158 648L135 660Q152 695 184 715T261 735Q312 735 342 709T373 640Q373 593 346 566T282 532L281 530Q307 523 328 503T350 442Q350 407 334 381T289 341T226 327Z" />
<glyph unicode="&#xb4;" horiz-adv-x="600" d="M437 734H471L345 583H318L437 734Z" />
<glyph unicode="&#xb5;" d="M-21 -210L143 500H171L103 204Q83 117 120 66T240 15Q298 15 341 40T413 109T454 206L522 500H550L434 0H408L433 110Q405 56 356 23T237 -10Q173 -10 131 22T82 109V109L7 -210H-21Z" />
<glyph unicode="&#xb6;" horiz-adv-x="547" d="M193 -100L272 242Q226 243 190 256T130 293T92 352T79 430Q79 498 106 549T188 630T328 660H559L383 -100H357L526 636H389L219 -100H193ZM277 266L362 636H322Q249 636 201 610T129 537T106 431Q106 356 150 311T277 266Z" />
<glyph unicode="&#xb7;" horiz-adv-x="197" d="M122 329Q110 329 103 336T95 356Q95 370 103 379T125 389Q137 389 144 382T152 362Q152 348 144 339T122 329Z" />
<glyph unicode="&#xb8;" horiz-adv-x="581" d="M215 2L237 8Q266 -11 283 -37T300 -96Q300 -130 286 -154T248 -191T192 -204Q156 -204 135 -190T104 -158L118 -140Q128 -157 145 -169T193 -181Q229 -181 252 -158T276 -97Q276 -67 261 -43T215 2Z" />
<glyph unicode="&#xb9;" horiz-adv-x="221" d="M147 333L217 634Q220 646 222 657T228 679T233 696Q215 678 184 660T110 629L112 651Q132 658 157 669T206 697T244 730H265L173 333H147Z" />
<glyph unicode="&#xba;" horiz-adv-x="373" d="M228 325Q171 325 135 361T98 472Q98 526 118 570T174 639T259 665Q317 665 352 630T388 519Q388 466 368 422T313 352T228 325ZM47 219L52 240H317L312 219H47ZM228 347Q269 347 299 371T345 434T362 518Q362 583
334 613T259 644Q218 644 188 620T141 557T124 473Q124 407 153 377T228 347Z" />
<glyph unicode="&#xbb;" horiz-adv-x="402" d="M8 69L204 274L205 254L104 461H133L229 265L42 69H8ZM137 69L333 274L334 254L233 461H262L358 265L171 69H137Z" />
<glyph unicode="&#xbc;" horiz-adv-x="714" d="M388 524L458 825Q461 837 463 848T469 870T474 887Q456 869 425 851T351 820L353 842Q373 849 398 860T447 888T485 921H506L414 524H388ZM30 0L646 660H679L63 0H30ZM522 -4L549 112H358L362 133Q369 141 375 147T387
161T402 176L603 393H638L577 133H655L651 112H573L546 -4H522ZM389 133H553L608 368L427 172Q418 163 409 153T389 133Z" />
<glyph unicode="&#xbd;" horiz-adv-x="832" d="M388 524L458 825Q461 837 463 848T469 870T474 887Q456 869 425 851T351 820L353 842Q373 849 398 860T447 888T485 921H506L414 524H388ZM30 0L646 660H679L63 0H30ZM470 -4L475 19Q517 49 562 80T647 145T710
215T735 296Q735 335 713 355T652 376Q608 376 577 349T536 275L513 287Q526 337 562 367T653 398Q703 398 732 370T761 298Q761 251 737 212T675 140T592 76T509 18V18Q518 18 527 18T546 18H733L728 -4H470Z" />
<glyph unicode="&#xbe;" horiz-adv-x="863" d="M467 518Q415 518 379 544T331 625L355 632Q364 584 394 563T467 541Q512 541 538 566T565 633Q565 673 540 693T477 713Q473 713 469 713T460 712L466 736Q472 735 477 735T488 735Q530 735 559 760T588 828Q588
865 565 884T501 904Q466 904 439 887T399 839L376 851Q393 886 425 906T502 926Q553 926 583 900T614 831Q614 784 587 757T523 723L522 721Q548 714 569 694T591 633Q591 598 575 572T530 532T467 518ZM180 0L796 660H829L213 0H180ZM672 -4L699 112H508L512
133Q519 141 525 147T537 161T552 176L753 393H788L727 133H805L801 112H723L696 -4H672ZM539 133H703L758 368L577 172Q568 163 559 153T539 133Z" />
<glyph unicode="&#xbf;" horiz-adv-x="457" d="M289 335L253 180Q172 179 120 157T43 94T17 -1Q17 -69 60 -108T178 -147Q256 -147 303 -109T370 -18L393 -33Q377 -73 349 -104T279 -154T178 -172Q120 -172 77 -151T11 -92T-12 -2Q-12 60 17 105T101 177T230 204L261
335H289ZM308 502Q320 502 327 495T335 475Q335 461 327 452T305 442Q293 442 286 449T278 469Q278 483 286 492T308 502Z" />
<glyph unicode="&#xc0;" horiz-adv-x="588" d="M-44 0L371 660H407L516 0H488L392 572L383 629V629L350 575L-12 0H-44ZM116 227L122 253H465L459 227H116ZM376 893L418 743H396L347 893H376Z" />
<glyph unicode="&#xc1;" horiz-adv-x="588" d="M-44 0L371 660H407L516 0H488L392 572L383 629V629L350 575L-12 0H-44ZM116 227L122 253H465L459 227H116ZM491 893H524L411 743H385L491 893Z" />
<glyph unicode="&#xc2;" horiz-adv-x="588" d="M-44 0L371 660H407L516 0H488L392 572L383 629V629L350 575L-12 0H-44ZM116 227L122 253H465L459 227H116ZM452 888L527 743H501L434 868L309 743H279L421 888H452Z" />
<glyph unicode="&#xc3;" horiz-adv-x="588" d="M-44 0L371 660H407L516 0H488L392 572L383 629V629L350 575L-12 0H-44ZM116 227L122 253H465L459 227H116ZM575 849Q562 801 537 779T483 756Q458 756 442 766T414 790T388 814T354 825Q327 825 312 807T284 755H260Q273
803 297 825T357 848Q381 848 397 838T425 814T451 790T485 779Q507 779 523 797T552 849H575Z" />
<glyph unicode="&#xc4;" horiz-adv-x="588" d="M-44 0L371 660H407L516 0H488L392 572L383 629V629L350 575L-12 0H-44ZM116 227L122 253H465L459 227H116ZM498 755Q487 755 480 762T472 780Q472 794 480 803T502 812Q514 812 521 805T528 787Q528 773 520 764T498
755ZM312 755Q301 755 294 762T287 780Q287 794 295 803T316 812Q328 812 335 805T342 787Q342 773 334 764T312 755Z" />
<glyph unicode="&#xc5;" horiz-adv-x="588" d="M-44 0L371 660H407L516 0H488L392 572L383 629V629L350 575L-12 0H-44ZM116 227L122 253H465L459 227H116ZM400 814Q438 814 462 792T486 734Q486 692 459 666T393 639Q355 639 331 662T306 719Q306 760 332 787T400
814ZM399 793Q369 793 349 772T329 720Q329 694 347 677T393 660Q421 660 441 679T462 733Q462 759 445 776T399 793Z" />
<glyph unicode="&#xc6;" horiz-adv-x="881" d="M-63 0L493 660H926L919 635H548L482 348H777L771 322H476L408 25H795L789 0H373L431 246H179L-25 0H-63ZM200 272H436L520 635H505L200 272Z" />
<glyph unicode="&#xc7;" horiz-adv-x="663" d="M347 -10Q272 -10 210 23T112 119T76 276Q76 353 97 424T160 550T265 637T410 670Q470 670 518 649T602 588T654 489L626 481Q603 561 546 603T408 645Q333 645 277 615T182 532T124 415T105 281Q105 197 138 138T226
47T349 15Q428 15 484 49T575 145L600 130Q561 64 498 27T347 -10ZM313 2L335 8Q364 -11 381 -37T398 -96Q398 -130 384 -154T346 -191T290 -204Q254 -204 233 -190T202 -158L216 -140Q226 -157 243 -169T291 -181Q327 -181 350 -158T374 -97Q374 -67 359 -43T313
2Z" />
<glyph unicode="&#xc8;" horiz-adv-x="582" d="M41 0L194 660H625L618 635H215L150 349H473L467 324H143L75 25H496L490 0H41ZM389 893L431 743H409L360 893H389Z" />
<glyph unicode="&#xc9;" horiz-adv-x="582" d="M41 0L194 660H625L618 635H215L150 349H473L467 324H143L75 25H496L490 0H41ZM507 893H540L427 743H401L507 893Z" />
<glyph unicode="&#xca;" horiz-adv-x="582" d="M41 0L194 660H625L618 635H215L150 349H473L467 324H143L75 25H496L490 0H41ZM468 888L543 743H517L450 868L325 743H295L437 888H468Z" />
<glyph unicode="&#xcb;" horiz-adv-x="582" d="M41 0L194 660H625L618 635H215L150 349H473L467 324H143L75 25H496L490 0H41ZM514 755Q503 755 496 762T488 780Q488 794 496 803T518 812Q530 812 537 805T544 787Q544 773 536 764T514 755ZM328 755Q317 755 310
762T303 780Q303 794 311 803T332 812Q344 812 351 805T358 787Q358 773 350 764T328 755Z" />
<glyph unicode="&#xcc;" horiz-adv-x="225" d="M222 660L69 0H41L194 660H222ZM194 893L236 743H214L165 893H194Z" />
<glyph unicode="&#xcd;" horiz-adv-x="225" d="M222 660L69 0H41L194 660H222ZM316 893H349L236 743H210L316 893Z" />
<glyph unicode="&#xce;" horiz-adv-x="225" d="M222 660L69 0H41L194 660H222ZM275 888L350 743H324L257 868L132 743H102L244 888H275Z" />
<glyph unicode="&#xcf;" horiz-adv-x="224" d="M294 755Q283 755 276 762T269 780Q269 794 277 803T298 812Q310 812 317 805T324 787Q324 773 316 764T294 755ZM161 755Q150 755 143 762T135 780Q135 794 143 803T165 812Q177 812 183 805T190 787Q190 773 182
764T161 755ZM222 660L69 0H41L194 660H222Z" />
<glyph unicode="&#xd0;" horiz-adv-x="699" d="M23 321L29 347H366L361 321H23ZM54 0L207 660H400Q485 660 543 625T631 529T662 390Q662 307 637 236T564 112T449 30T297 0H54ZM88 25H300Q377 25 438 53T543 130T610 246T633 387Q633 458 607 514T528 602T396
635H229L88 25Z" />
<glyph unicode="&#xd1;" horiz-adv-x="687" d="M41 0L194 660H229L489 87L512 30V30L526 96L657 660H684L531 0H496L235 574L212 631V631L199 564L68 0H41ZM624 849Q611 801 586 779T532 756Q507 756 491 766T463 790T437 814T403 825Q376 825 361 807T333 755H309Q322
803 346 825T406 848Q430 848 446 838T474 814T500 790T534 779Q556 779 572 797T601 849H624Z" />
<glyph unicode="&#xd2;" horiz-adv-x="718" d="M347 -10Q273 -10 211 23T113 122T77 280Q77 357 98 427T161 551T266 638T411 670Q485 670 545 636T642 538T678 380Q678 304 657 234T594 109T491 22T347 -10ZM349 16Q423 16 479 46T573 127T630 243T649 379Q649
464 617 523T530 613T408 644Q334 644 278 614T183 533T125 417T106 281Q106 196 138 137T226 47T349 16ZM411 893L453 743H431L382 893H411Z" />
<glyph unicode="&#xd3;" horiz-adv-x="718" d="M347 -10Q273 -10 211 23T113 122T77 280Q77 357 98 427T161 551T266 638T411 670Q485 670 545 636T642 538T678 380Q678 304 657 234T594 109T491 22T347 -10ZM349 16Q423 16 479 46T573 127T630 243T649 379Q649
464 617 523T530 613T408 644Q334 644 278 614T183 533T125 417T106 281Q106 196 138 137T226 47T349 16ZM529 893H562L449 743H423L529 893Z" />
<glyph unicode="&#xd4;" horiz-adv-x="718" d="M347 -10Q273 -10 211 23T113 122T77 280Q77 357 98 427T161 551T266 638T411 670Q485 670 545 636T642 538T678 380Q678 304 657 234T594 109T491 22T347 -10ZM349 16Q423 16 479 46T573 127T630 243T649 379Q649
464 617 523T530 613T408 644Q334 644 278 614T183 533T125 417T106 281Q106 196 138 137T226 47T349 16ZM490 888L565 743H539L472 868L347 743H317L459 888H490Z" />
<glyph unicode="&#xd5;" horiz-adv-x="718" d="M347 -10Q273 -10 211 23T113 122T77 280Q77 357 98 427T161 551T266 638T411 670Q485 670 545 636T642 538T678 380Q678 304 657 234T594 109T491 22T347 -10ZM349 16Q423 16 479 46T573 127T630 243T649 379Q649
464 617 523T530 613T408 644Q334 644 278 614T183 533T125 417T106 281Q106 196 138 137T226 47T349 16ZM613 849Q600 801 575 779T521 756Q496 756 480 766T452 790T426 814T392 825Q365 825 350 807T322 755H298Q311 803 335 825T395 848Q419 848 435 838T463
814T489 790T523 779Q545 779 561 797T590 849H613Z" />
<glyph unicode="&#xd6;" horiz-adv-x="718" d="M347 -10Q273 -10 211 23T113 122T77 280Q77 357 98 427T161 551T266 638T411 670Q485 670 545 636T642 538T678 380Q678 304 657 234T594 109T491 22T347 -10ZM349 16Q423 16 479 46T573 127T630 243T649 379Q649
464 617 523T530 613T408 644Q334 644 278 614T183 533T125 417T106 281Q106 196 138 137T226 47T349 16ZM536 755Q525 755 518 762T510 780Q510 794 518 803T540 812Q552 812 559 805T566 787Q566 773 558 764T536 755ZM350 755Q339 755 332 762T325 780Q325 794
333 803T354 812Q366 812 373 805T380 787Q380 773 372 764T350 755Z" />
<glyph unicode="&#xd7;" horiz-adv-x="604" d="M106 127L89 149L521 499L537 477L106 127ZM437 127L168 482L190 499L458 144L437 127Z" />
<glyph unicode="&#xd8;" horiz-adv-x="718" d="M171 75L156 92L595 575L609 558L171 75ZM61 -12L156 92L171 75L92 -12H61ZM609 558L595 575L684 674H715L609 558ZM347 -10Q273 -10 211 23T113 122T77 280Q77 357 98 427T161 551T266 638T411 670Q485 670 545
636T642 538T678 380Q678 304 657 234T594 109T491 22T347 -10ZM349 16Q423 16 479 46T573 127T630 243T649 379Q649 464 617 523T530 613T408 644Q334 644 278 614T183 533T125 417T106 281Q106 196 138 137T226 47T349 16Z" />
<glyph unicode="&#xd9;" horiz-adv-x="663" d="M310 -10Q223 -10 167 25T91 124T91 278L181 660H209L118 270Q99 189 117 132T186 45T311 15Q408 15 466 76T550 250L645 660H673L577 241Q549 123 485 57T310 -10ZM410 857L452 707H430L381 857H410Z" />
<glyph unicode="&#xda;" horiz-adv-x="663" d="M310 -10Q223 -10 167 25T91 124T91 278L181 660H209L118 270Q99 189 117 132T186 45T311 15Q408 15 466 76T550 250L645 660H673L577 241Q549 123 485 57T310 -10ZM512 857H545L432 707H406L512 857Z" />
<glyph unicode="&#xdb;" horiz-adv-x="663" d="M310 -10Q223 -10 167 25T91 124T91 278L181 660H209L118 270Q99 189 117 132T186 45T311 15Q408 15 466 76T550 250L645 660H673L577 241Q549 123 485 57T310 -10ZM489 852L564 707H538L471 832L346 707H316L458 852H489Z" />
<glyph unicode="&#xdc;" horiz-adv-x="663" d="M310 -10Q223 -10 167 25T91 124T91 278L181 660H209L118 270Q99 189 117 132T186 45T311 15Q408 15 466 76T550 250L645 660H673L577 241Q549 123 485 57T310 -10ZM535 719Q524 719 517 726T509 744Q509 758 517
767T539 776Q551 776 558 769T565 751Q565 737 557 728T535 719ZM349 719Q338 719 331 726T324 744Q324 758 332 767T353 776Q365 776 372 769T379 751Q379 737 371 728T349 719Z" />
<glyph unicode="&#xdd;" horiz-adv-x="514" d="M185 0L244 256L111 660H141L218 421L263 283L378 432L559 660H593L272 254L213 0H185ZM438 857H471L358 707H332L438 857Z" />
<glyph unicode="&#xde;" horiz-adv-x="567" d="M93 134L97 159H310Q379 159 426 185T497 254T522 349Q522 416 474 454T342 493H176L179 519H343Q438 519 494 474T551 349Q551 288 522 240T439 163T308 134H93ZM41 0L194 660H222L69 0H41Z" />
<glyph unicode="&#xdf;" horiz-adv-x="554" d="M283 -10Q244 -10 215 1T169 26L181 50Q199 35 224 25T285 15Q345 15 386 41T448 110T469 207Q469 283 423 324T287 366Q284 366 281 366T275 366L281 392Q292 391 301 391T319 390Q381 390 427 413T498 476T523
567Q523 606 508 638T460 690T372 710Q294 710 245 666T176 532L54 0H26L150 541Q173 638 229 686T375 735Q437 735 475 712T532 652T551 570Q551 516 527 474T458 407T355 376V374Q398 369 429 347T478 290T496 208Q496 145 472 96T400 18T283 -10Z" />
<glyph unicode="&#xe0;" horiz-adv-x="588" d="M253 -10Q190 -10 145 19T74 99T49 216Q49 278 67 331T118 424T199 487T305 510Q364 510 405 488T470 424T494 329L533 500H561L445 0H419L446 120Q420 65 372 28T253 -10ZM260 15Q309 15 349 39T418 105T463 196T479
300Q479 366 455 406T391 466T305 486Q254 486 213 466T141 410T94 324T77 215Q77 152 101 107T166 39T260 15ZM298 734L349 583H326L269 734H298Z" />
<glyph unicode="&#xe1;" horiz-adv-x="588" d="M253 -10Q190 -10 145 19T74 99T49 216Q49 278 67 331T118 424T199 487T305 510Q364 510 405 488T470 424T494 329L533 500H561L445 0H419L446 120Q420 65 372 28T253 -10ZM260 15Q309 15 349 39T418 105T463 196T479
300Q479 366 455 406T391 466T305 486Q254 486 213 466T141 410T94 324T77 215Q77 152 101 107T166 39T260 15ZM440 734H474L348 583H321L440 734Z" />
<glyph unicode="&#xe2;" horiz-adv-x="588" d="M253 -10Q190 -10 145 19T74 99T49 216Q49 278 67 331T118 424T199 487T305 510Q364 510 405 488T470 424T494 329L533 500H561L445 0H419L446 120Q420 65 372 28T253 -10ZM260 15Q309 15 349 39T418 105T463 196T479
300Q479 366 455 406T391 466T305 486Q254 486 213 466T141 410T94 324T77 215Q77 152 101 107T166 39T260 15ZM211 582L354 728H386L461 582H435L368 708L241 582H211Z" />
<glyph unicode="&#xe3;" horiz-adv-x="588" d="M253 -10Q190 -10 145 19T74 99T49 216Q49 278 67 331T118 424T199 487T305 510Q364 510 405 488T470 424T494 329L533 500H561L445 0H419L446 120Q420 65 372 28T253 -10ZM260 15Q309 15 349 39T418 105T463 196T479
300Q479 366 455 406T391 466T305 486Q254 486 213 466T141 410T94 324T77 215Q77 152 101 107T166 39T260 15ZM508 689Q495 641 470 619T416 596Q391 596 375 606T347 630T321 654T287 665Q260 665 245 647T217 595H193Q206 643 230 665T290 688Q314 688 330 678T358
654T384 630T418 619Q440 619 456 637T485 689H508Z" />
<glyph unicode="&#xe4;" horiz-adv-x="588" d="M253 -10Q190 -10 145 19T74 99T49 216Q49 278 67 331T118 424T199 487T305 510Q364 510 405 488T470 424T494 329L533 500H561L445 0H419L446 120Q420 65 372 28T253 -10ZM260 15Q309 15 349 39T418 105T463 196T479
300Q479 366 455 406T391 466T305 486Q254 486 213 466T141 410T94 324T77 215Q77 152 101 107T166 39T260 15ZM431 595Q420 595 413 602T405 620Q405 634 413 643T435 652Q447 652 454 645T461 627Q461 613 453 604T431 595ZM245 595Q234 595 227 602T220 620Q220
634 228 643T249 652Q261 652 268 645T275 627Q275 613 267 604T245 595Z" />
<glyph unicode="&#xe5;" horiz-adv-x="588" d="M253 -10Q190 -10 145 19T74 99T49 216Q49 278 67 331T118 424T199 487T305 510Q364 510 405 488T470 424T494 329L533 500H561L445 0H419L446 120Q420 65 372 28T253 -10ZM260 15Q309 15 349 39T418 105T463 196T479
300Q479 366 455 406T391 466T305 486Q254 486 213 466T141 410T94 324T77 215Q77 152 101 107T166 39T260 15ZM352 750Q390 750 414 728T438 670Q438 628 411 602T345 575Q307 575 283 598T258 655Q258 696 284 723T352 750ZM351 729Q321 729 301 708T281 656Q281
630 299 613T345 596Q373 596 393 615T414 669Q414 695 397 712T351 729Z" />
<glyph unicode="&#xe6;" horiz-adv-x="855" d="M175 -10Q108 -10 66 22T24 114Q24 155 47 186T115 236T227 261L402 279V256L240 240Q147 230 100 199T53 115Q53 65 87 40T176 14Q255 14 305 60T379 214L400 311Q403 324 405 336T407 358Q407 420 367 452T265
485Q202 485 163 458T98 378L78 391Q105 447 149 478T266 509Q315 509 351 492T407 444T427 369L422 370Q439 410 469 441T539 490T630 509Q686 509 725 483T786 412T808 308Q808 295 807 282T802 255H410L411 279H780Q782 286 782 293T782 306Q782 357 764 397T711
461T629 485Q580 485 541 465T473 407T429 322T413 216Q413 161 432 115T490 42T586 15Q648 15 692 44T763 118L786 104Q765 72 737 46T671 6T585 -9Q520 -9 478 20T414 97T391 196L396 201Q381 124 350 78T275 11T175 -10Z" />
<glyph unicode="&#xe7;" horiz-adv-x="520" d="M262 -10Q201 -10 153 18T77 97T49 215Q49 297 80 364T168 470T303 510Q352 510 390 492T455 441T491 362L463 355Q450 416 409 451T302 486Q249 486 208 465T138 407T93 321T77 217Q77 155 102 110T169 40T266 15Q325
15 369 46T437 128L461 117Q435 60 384 25T262 -10ZM219 2L241 8Q270 -11 287 -37T304 -96Q304 -130 290 -154T252 -191T196 -204Q160 -204 139 -190T108 -158L122 -140Q132 -157 149 -169T197 -181Q233 -181 256 -158T280 -97Q280 -67 265 -43T219 2Z" />
<glyph unicode="&#xe8;" horiz-adv-x="535" d="M263 -9Q195 -9 147 21T74 103T49 217Q49 295 78 361T165 468T302 509Q360 509 402 483T467 411T490 307Q490 295 489 282T485 255H65V279H470L460 271Q461 280 461 289T462 305Q462 355 443 396T388 461T299 485Q247
485 206 464T135 405T92 320T77 216Q77 158 100 113T165 41T265 15Q325 16 371 44T444 118L467 104Q446 72 417 46T349 6T263 -9ZM283 734L334 583H311L254 734H283Z" />
<glyph unicode="&#xe9;" horiz-adv-x="535" d="M263 -9Q195 -9 147 21T74 103T49 217Q49 295 78 361T165 468T302 509Q360 509 402 483T467 411T490 307Q490 295 489 282T485 255H65V279H470L460 271Q461 280 461 289T462 305Q462 355 443 396T388 461T299 485Q247
485 206 464T135 405T92 320T77 216Q77 158 100 113T165 41T265 15Q325 16 371 44T444 118L467 104Q446 72 417 46T349 6T263 -9ZM425 734H459L333 583H306L425 734Z" />
<glyph unicode="&#xea;" horiz-adv-x="535" d="M263 -9Q195 -9 147 21T74 103T49 217Q49 295 78 361T165 468T302 509Q360 509 402 483T467 411T490 307Q490 295 489 282T485 255H65V279H470L460 271Q461 280 461 289T462 305Q462 355 443 396T388 461T299 485Q247
485 206 464T135 405T92 320T77 216Q77 158 100 113T165 41T265 15Q325 16 371 44T444 118L467 104Q446 72 417 46T349 6T263 -9ZM196 582L339 728H371L446 582H420L353 708L226 582H196Z" />
<glyph unicode="&#xeb;" horiz-adv-x="535" d="M263 -9Q195 -9 147 21T74 103T49 217Q49 295 78 361T165 468T302 509Q360 509 402 483T467 411T490 307Q490 295 489 282T485 255H65V279H470L460 271Q461 280 461 289T462 305Q462 355 443 396T388 461T299 485Q247
485 206 464T135 405T92 320T77 216Q77 158 100 113T165 41T265 15Q325 16 371 44T444 118L467 104Q446 72 417 46T349 6T263 -9ZM416 595Q405 595 398 602T390 620Q390 634 398 643T420 652Q432 652 439 645T446 627Q446 613 438 604T416 595ZM230 595Q219 595
212 602T205 620Q205 634 213 643T234 652Q246 652 253 645T260 627Q260 613 252 604T230 595Z" />
<glyph unicode="&#xec;" horiz-adv-x="196" d="M170 500L54 0H26L142 500H170ZM136 734L187 583H164L107 734H136Z" />
<glyph unicode="&#xed;" horiz-adv-x="196" d="M170 500L54 0H26L142 500H170ZM278 734H312L186 583H159L278 734Z" />
<glyph unicode="&#xee;" horiz-adv-x="196" d="M170 500L54 0H26L142 500H170ZM49 582L192 728H224L299 582H273L206 708L79 582H49Z" />
<glyph unicode="&#xef;" horiz-adv-x="196" d="M235 595Q223 595 216 602T209 620Q209 634 217 643T239 652Q251 652 257 645T264 627Q264 613 256 604T235 595ZM118 595Q106 595 99 602T92 620Q92 634 100 643T122 652Q134 652 140 645T147 627Q147 613 139 604T118
595ZM170 500L54 0H26L142 500H170Z" />
<glyph unicode="&#xf0;" horiz-adv-x="571" d="M257 -10Q188 -10 142 22T73 107T49 216Q49 293 82 354T173 451T297 487Q355 487 399 462T468 390T494 279L488 272Q498 316 501 357T504 427Q504 502 483 560T423 661T330 730H371Q407 713 436 684T487 615T520
530T532 431Q532 340 516 260T466 120T380 25T257 -10ZM257 15Q308 15 349 36T418 94T462 174T478 264Q478 326 455 370T391 438T297 463Q254 463 215 445T144 393T95 315T77 216Q77 159 100 114T164 42T257 15ZM284 567L281 588L469 627L479 608L284 567ZM479
608L469 627L599 656L603 635L479 608Z" />
<glyph unicode="&#xf1;" horiz-adv-x="569" d="M27 0L143 500H169L139 365L134 367Q156 429 212 469T351 510Q410 510 449 484T503 410T503 295L434 0H406L474 294Q495 387 459 436T346 486Q283 486 238 460T165 391T123 294L55 0H27ZM527 689Q514 641 489 619T435
596Q410 596 394 606T366 630T340 654T306 665Q279 665 264 647T236 595H212Q225 643 249 665T309 688Q333 688 349 678T377 654T403 630T437 619Q459 619 475 637T504 689H527Z" />
<glyph unicode="&#xf2;" horiz-adv-x="567" d="M267 -9Q197 -9 149 21T75 103T50 216Q50 302 81 368T170 471T302 509Q372 509 420 479T493 398T518 285Q518 200 487 134T399 29T267 -9ZM267 15Q316 15 357 34T427 90T473 175T490 284Q490 345 467 389T402 459T301
485Q252 485 211 466T140 411T94 326T78 217Q78 157 101 112T167 41T267 15ZM295 734L346 583H323L266 734H295Z" />
<glyph unicode="&#xf3;" horiz-adv-x="567" d="M267 -9Q197 -9 149 21T75 103T50 216Q50 302 81 368T170 471T302 509Q372 509 420 479T493 398T518 285Q518 200 487 134T399 29T267 -9ZM267 15Q316 15 357 34T427 90T473 175T490 284Q490 345 467 389T402 459T301
485Q252 485 211 466T140 411T94 326T78 217Q78 157 101 112T167 41T267 15ZM437 734H471L345 583H318L437 734Z" />
<glyph unicode="&#xf4;" horiz-adv-x="567" d="M267 -9Q197 -9 149 21T75 103T50 216Q50 302 81 368T170 471T302 509Q372 509 420 479T493 398T518 285Q518 200 487 134T399 29T267 -9ZM267 15Q316 15 357 34T427 90T473 175T490 284Q490 345 467 389T402 459T301
485Q252 485 211 466T140 411T94 326T78 217Q78 157 101 112T167 41T267 15ZM208 582L351 728H383L458 582H432L365 708L238 582H208Z" />
<glyph unicode="&#xf5;" horiz-adv-x="567" d="M267 -9Q197 -9 149 21T75 103T50 216Q50 302 81 368T170 471T302 509Q372 509 420 479T493 398T518 285Q518 200 487 134T399 29T267 -9ZM267 15Q316 15 357 34T427 90T473 175T490 284Q490 345 467 389T402 459T301
485Q252 485 211 466T140 411T94 326T78 217Q78 157 101 112T167 41T267 15ZM505 689Q492 641 467 619T413 596Q388 596 372 606T344 630T318 654T284 665Q257 665 242 647T214 595H190Q203 643 227 665T287 688Q311 688 327 678T355 654T381 630T415 619Q437 619
453 637T482 689H505Z" />
<glyph unicode="&#xf6;" horiz-adv-x="567" d="M267 -9Q197 -9 149 21T75 103T50 216Q50 302 81 368T170 471T302 509Q372 509 420 479T493 398T518 285Q518 200 487 134T399 29T267 -9ZM267 15Q316 15 357 34T427 90T473 175T490 284Q490 345 467 389T402 459T301
485Q252 485 211 466T140 411T94 326T78 217Q78 157 101 112T167 41T267 15ZM428 595Q417 595 410 602T402 620Q402 634 410 643T432 652Q444 652 451 645T458 627Q458 613 450 604T428 595ZM242 595Q231 595 224 602T217 620Q217 634 225 643T246 652Q258 652
265 645T272 627Q272 613 264 604T242 595Z" />
<glyph unicode="&#xf7;" horiz-adv-x="604" d="M549 329L543 303H86L92 329H549ZM273 100Q261 100 254 107T246 126Q246 141 254 150T276 160Q288 160 295 153T303 133Q303 119 295 110T273 100ZM359 474Q347 474 340 481T332 500Q332 515 340 524T362 534Q374
534 381 527T389 507Q389 493 381 484T359 474Z" />
<glyph unicode="&#xf8;" horiz-adv-x="567" d="M267 -9Q197 -9 149 21T75 103T50 216Q50 302 81 368T170 471T302 509Q372 509 420 479T493 398T518 285Q518 200 487 134T399 29T267 -9ZM267 15Q316 15 357 34T427 90T473 175T490 284Q490 345 467 389T402 459T301
485Q252 485 211 466T140 411T94 326T78 217Q78 157 101 112T167 41T267 15ZM246 -26L802 527H833L276 -26H246Z" />
<glyph unicode="&#xf9;" horiz-adv-x="569" d="M227 -10Q164 -10 123 15T67 90T67 208L135 500H163L96 207Q74 113 112 64T232 15Q290 15 333 40T405 109T446 206L514 500H542L426 0H400L430 135L435 133Q410 69 357 30T227 -10ZM308 716L359 565H336L279 716H308Z" />
<glyph unicode="&#xfa;" horiz-adv-x="569" d="M227 -10Q164 -10 123 15T67 90T67 208L135 500H163L96 207Q74 113 112 64T232 15Q290 15 333 40T405 109T446 206L514 500H542L426 0H400L430 135L435 133Q410 69 357 30T227 -10ZM450 716H484L358 565H331L450 716Z" />
<glyph unicode="&#xfb;" horiz-adv-x="569" d="M227 -10Q164 -10 123 15T67 90T67 208L135 500H163L96 207Q74 113 112 64T232 15Q290 15 333 40T405 109T446 206L514 500H542L426 0H400L430 135L435 133Q410 69 357 30T227 -10ZM221 564L364 710H396L471 564H445L378
690L251 564H221Z" />
<glyph unicode="&#xfc;" horiz-adv-x="569" d="M227 -10Q164 -10 123 15T67 90T67 208L135 500H163L96 207Q74 113 112 64T232 15Q290 15 333 40T405 109T446 206L514 500H542L426 0H400L430 135L435 133Q410 69 357 30T227 -10ZM441 577Q430 577 423 584T415
602Q415 616 423 625T445 634Q457 634 464 627T471 609Q471 595 463 586T441 577ZM255 577Q244 577 237 584T230 602Q230 616 238 625T259 634Q271 634 278 627T285 609Q285 595 277 586T255 577Z" />
<glyph unicode="&#xfd;" horiz-adv-x="478" d="M-23 -215Q-51 -215 -72 -207T-103 -183L-87 -162Q-66 -190 -22 -190Q15 -190 46 -167T112 -88L168 1L78 500H106L180 86L189 31L225 89L485 500H517L135 -100Q109 -142 84 -167T34 -204T-23 -215ZM409 716H443L317
565H290L409 716Z" />
<glyph unicode="&#xfe;" horiz-adv-x="588" d="M-21 -210L196 730H224L136 350L130 353Q153 428 211 469T344 510Q404 510 448 481T515 401T539 286Q539 225 522 172T473 78T396 14T294 -10Q231 -10 186 17T118 93T96 205L109 231L7 -210H-21ZM295 14Q343 14 382
35T451 93T495 179T511 287Q511 349 489 393T427 461T337 485Q285 485 244 464T175 405T131 315T115 203Q115 116 164 65T295 14Z" />
<glyph unicode="&#xff;" horiz-adv-x="478" d="M-23 -215Q-51 -215 -72 -207T-103 -183L-87 -162Q-66 -190 -22 -190Q15 -190 46 -167T112 -88L168 1L78 500H106L180 86L189 31L225 89L485 500H517L135 -100Q109 -142 84 -167T34 -204T-23 -215ZM400 577Q389 577
382 584T374 602Q374 616 382 625T404 634Q416 634 423 627T430 609Q430 595 422 586T400 577ZM214 577Q203 577 196 584T189 602Q189 616 197 625T218 634Q230 634 237 627T244 609Q244 595 236 586T214 577Z" />
<glyph unicode="&#x2013;" horiz-adv-x="619" d="M556 282L550 255H72L78 282H556Z" />
<glyph unicode="&#x2014;" horiz-adv-x="953" d="M889 282L884 255H72L78 282H889Z" />
<glyph unicode="&#x2018;" horiz-adv-x="181" d="M159 523Q143 523 133 534T123 563Q123 590 137 617T175 665T227 692L234 672Q207 667 187 650T157 611T145 573L146 572Q149 579 155 581T166 584Q179 584 185 576T192 557Q192 542 183 533T159 523Z" />
<glyph unicode="&#x2019;" horiz-adv-x="181" d="M194 690Q211 690 220 679T229 650Q229 624 216 597T179 549T126 521L117 542Q145 548 164 564T195 601T208 641L207 642Q203 635 198 633T185 630Q173 630 167 638T160 657Q160 671 169 680T194 690Z" />
<glyph unicode="&#x201a;" horiz-adv-x="181" d="M47 54Q64 54 73 43T82 14Q82 -12 69 -39T32 -87T-21 -115L-30 -94Q-2 -88 17 -72T48 -35T61 5L60 6Q56 -1 51 -3T38 -6Q26 -6 20 2T13 21Q13 35 22 44T47 54Z" />
<glyph unicode="&#x201c;" horiz-adv-x="295" d="M159 523Q143 523 133 534T123 563Q123 590 137 617T175 665T227 692L234 672Q207 667 187 650T157 611T145 573L146 572Q149 579 155 581T166 584Q179 584 185 576T192 557Q192 542 183 533T159 523ZM273 523Q257
523 247 534T237 563Q237 590 251 617T289 665T341 692L348 672Q321 667 301 650T271 611T259 573L260 572Q263 579 269 581T280 584Q293 584 299 576T306 557Q306 542 297 533T273 523Z" />
<glyph unicode="&#x201d;" horiz-adv-x="295" d="M194 690Q211 690 220 679T229 650Q229 624 216 597T179 549T126 521L117 542Q145 548 164 564T195 601T208 641L207 642Q203 635 198 633T185 630Q173 630 167 638T160 657Q160 671 169 680T194 690ZM308 690Q325
690 334 679T343 650Q343 624 330 597T293 549T240 521L231 542Q259 548 278 564T309 601T322 641L321 642Q317 635 312 633T299 630Q287 630 281 638T274 657Q274 671 283 680T308 690Z" />
<glyph unicode="&#x201e;" horiz-adv-x="295" d="M47 54Q64 54 73 43T82 14Q82 -12 69 -39T32 -87T-21 -115L-30 -94Q-2 -88 17 -72T48 -35T61 5L60 6Q56 -1 51 -3T38 -6Q26 -6 20 2T13 21Q13 35 22 44T47 54ZM161 54Q178 54 187 43T196 14Q196 -12 183 -39T146
-87T93 -115L84 -94Q112 -88 131 -72T162 -35T175 5L174 6Q170 -1 165 -3T152 -6Q140 -6 134 2T127 21Q127 35 136 44T161 54Z" />
<glyph unicode="&#x2022;" horiz-adv-x="430" d="M231 267Q202 267 183 285T163 332Q163 367 186 388T242 410Q271 410 289 392T308 345Q308 311 287 289T231 267Z" />
<glyph unicode="&#x2039;" horiz-adv-x="272" d="M271 461L74 256V276L174 69H145L50 265L236 461H271Z" />
<glyph unicode="&#x203a;" horiz-adv-x="273" d="M8 69L204 274L205 254L104 461H133L229 265L42 69H8Z" />
</font>
</defs>
</svg>
