<?xml version="1.0" standalone="no"?>
<!DOCTYPE svg PUBLIC "-//W3C//DTD SVG 20010904//EN"
 "http://www.w3.org/TR/2001/REC-SVG-20010904/DTD/svg10.dtd">
<svg version="1.0" xmlns="http://www.w3.org/2000/svg"
 width="664.000000pt" height="664.000000pt" viewBox="0 0 664.000000 664.000000"
 preserveAspectRatio="xMidYMid meet">
<metadata>
Created by potrace 1.14, written by Peter Selinger 2001-2017
</metadata>
<g transform="translate(0.000000,664.000000) scale(0.100000,-0.100000)"
fill="#000000" stroke="none">
<path d="M3177 6274 c-1 -2 -45 -5 -97 -8 -88 -6 -112 -9 -180 -22 -14 -2 -45
-7 -70 -10 -25 -3 -72 -15 -105 -26 -33 -11 -67 -21 -77 -23 -9 -2 -30 -11
-47 -19 -17 -9 -32 -16 -33 -16 -40 -2 -209 -88 -302 -154 -96 -70 -162 -139
-231 -243 -30 -46 -55 -85 -55 -88 0 -3 -11 -22 -24 -43 -44 -70 -135 -228
-142 -248 -4 -10 -11 -21 -14 -24 -4 -3 -31 -48 -61 -100 -30 -52 -58 -103
-64 -112 -5 -9 -20 -34 -31 -55 -12 -21 -70 -121 -129 -223 -59 -102 -108
-190 -109 -197 -1 -6 -14 -26 -29 -44 -41 -50 -104 -185 -128 -274 -42 -163
-24 -401 43 -555 41 -94 93 -190 122 -227 63 -78 220 -228 279 -266 31 -20 35
-37 9 -37 -10 0 -22 -3 -26 -7 -3 -4 -12 -8 -19 -9 -7 -1 -70 -21 -141 -44
-71 -23 -134 -43 -140 -44 -6 -1 -15 -4 -21 -8 -8 -5 -59 -21 -110 -34 -5 -1
-44 -14 -85 -29 -41 -14 -84 -28 -96 -30 -83 -19 -98 -30 -150 -116 -28 -46
-64 -109 -81 -139 -16 -30 -40 -71 -51 -90 -12 -19 -26 -44 -32 -55 -5 -11
-24 -45 -42 -76 -18 -31 -54 -94 -80 -140 -26 -46 -55 -95 -63 -109 -8 -14
-38 -65 -66 -115 -28 -49 -61 -106 -72 -125 -11 -19 -30 -53 -42 -75 -12 -22
-33 -58 -46 -80 -13 -22 -22 -42 -21 -44 2 -2 0 -7 -5 -10 -5 -3 -20 -26 -34
-51 -13 -25 -26 -47 -29 -50 -3 -3 -14 -23 -25 -45 -11 -22 -22 -42 -26 -45
-3 -3 -13 -20 -21 -37 l-16 -33 46 -33 c156 -113 504 -337 522 -337 6 0 10 -3
10 -8 0 -4 34 -25 75 -47 41 -22 75 -43 75 -47 0 -5 9 -8 19 -8 11 0 22 -4 25
-9 3 -5 27 -20 53 -34 27 -13 73 -39 103 -56 90 -50 415 -209 525 -256 17 -7
51 -22 77 -34 26 -11 50 -21 53 -21 3 0 24 -9 48 -19 36 -16 70 -30 87 -36 3
-1 16 -6 30 -12 36 -15 246 -88 310 -108 30 -9 62 -19 70 -22 8 -3 20 -7 25
-8 6 0 17 -4 25 -7 12 -5 139 -39 199 -53 9 -3 34 -9 56 -14 22 -6 54 -12 70
-15 28 -5 45 -9 105 -21 33 -6 73 -13 129 -21 25 -4 55 -8 66 -10 20 -4 86
-11 210 -20 129 -9 412 -3 485 11 12 2 48 7 79 11 31 3 59 8 62 10 4 2 24 6
45 10 142 22 460 151 540 219 6 6 24 19 40 30 55 39 194 187 194 207 0 4 5 7
11 5 6 -1 20 14 30 33 11 19 25 44 32 55 6 11 10 23 9 28 -1 4 3 7 8 7 6 0 10
4 10 9 0 5 27 56 60 114 33 59 60 111 60 117 0 5 5 10 10 10 6 0 10 4 10 10 0
5 40 81 90 169 49 88 103 184 119 213 83 153 105 193 110 198 3 3 20 32 36 65
17 33 33 62 38 63 4 2 7 7 7 12 0 4 47 91 103 193 149 266 177 352 172 529 -2
57 -6 113 -9 126 -3 12 -8 30 -10 40 -3 14 -25 94 -31 112 -19 58 -101 219
-135 264 -34 46 -248 254 -288 280 -33 23 -40 32 -31 42 6 8 19 14 28 14 9 0
22 5 29 12 7 7 12 9 12 6 0 -4 24 3 53 13 46 18 69 25 102 32 6 2 16 6 22 10
7 5 21 10 30 12 43 10 470 157 485 168 18 13 248 388 248 405 0 6 4 12 8 14 4
2 90 140 190 308 100 168 187 312 192 320 6 8 16 25 23 37 7 12 24 42 38 67
25 41 26 46 10 59 -33 29 -210 147 -219 147 -6 0 -12 4 -14 8 -1 5 -32 26 -68
48 -36 21 -66 42 -68 47 -2 4 -7 7 -12 7 -5 0 -45 23 -90 50 -45 28 -86 50
-91 50 -5 0 -9 4 -9 9 0 5 -8 11 -17 14 -10 3 -40 19 -68 36 -53 32 -99 57
-208 114 -38 19 -75 41 -83 47 -8 7 -14 10 -14 6 0 -3 -23 8 -50 24 -28 17
-53 30 -55 30 -2 0 -46 21 -97 46 -51 25 -145 68 -208 96 -63 28 -139 61 -168
74 -29 13 -56 24 -60 24 -5 0 -27 9 -50 20 -22 11 -47 20 -55 20 -7 0 -17 4
-22 9 -6 4 -66 27 -135 50 -69 24 -134 46 -145 50 -43 17 -235 73 -325 96 -47
11 -209 47 -230 51 -14 2 -36 7 -50 10 -14 3 -43 8 -65 10 -22 3 -51 7 -65 10
-65 12 -137 20 -255 30 -70 6 -324 12 -328 8z"/>
</g>
</svg>
